<svg width="332" height="115" viewBox="0 0 332 115" fill="none" xmlns="http://www.w3.org/2000/svg">
<path d="M1.70155 46.5377H5.55005C5.87625 46.5377 6.19925 46.602 6.50062 46.7268C6.80199 46.8517 7.07582 47.0346 7.30648 47.2653C7.53714 47.4959 7.7201 47.7698 7.84493 48.0711C7.96976 48.3725 8.03401 48.6955 8.03401 49.0217V62.7842C8.03442 66.078 9.34307 69.2368 11.6721 71.5658C14.0012 73.8949 17.16 75.2036 20.4538 75.204H28.2367C28.5002 75.2036 28.7527 75.0986 28.9389 74.9121C29.1251 74.7257 29.2296 74.473 29.2296 74.2095V60.2737C29.2296 60.0103 29.125 59.7578 28.9388 59.5716C28.7526 59.3853 28.5 59.2807 28.2367 59.2807H22.7629C22.4367 59.2807 22.1137 59.2165 21.8123 59.0916C21.511 58.9668 21.2371 58.7838 21.0065 58.5532C20.7758 58.3225 20.5929 58.0487 20.468 57.7473C20.3432 57.446 20.279 57.123 20.279 56.7968V19.1127C20.279 18.7865 20.3432 18.4635 20.468 18.1621C20.5929 17.8608 20.7758 17.5869 21.0065 17.3563C21.2371 17.1256 21.511 16.9426 21.8123 16.8178C22.1137 16.693 22.4367 16.6287 22.7629 16.6287H28.2367C28.5 16.6287 28.7526 16.5241 28.9388 16.3379C29.125 16.1517 29.2296 15.8991 29.2296 15.6358V1.69999C29.2296 1.43664 29.125 1.18408 28.9388 0.997861C28.7526 0.811645 28.5 0.707031 28.2367 0.707031H20.4538C17.1599 0.707031 14.0009 2.01554 11.6717 4.34471C9.34253 6.67387 8.03401 9.8329 8.03401 13.1268V27.5091C8.03401 27.8353 7.96976 28.1583 7.84493 28.4597C7.7201 28.7611 7.53714 29.0349 7.30648 29.2656C7.07582 29.4962 6.80199 29.6792 6.50062 29.804C6.19925 29.9288 5.87625 29.9931 5.55005 29.9931H1.70155C1.43779 29.9931 1.18483 30.0979 0.998321 30.2844C0.811812 30.4709 0.707031 30.7239 0.707031 30.9876V45.5432C0.707031 45.807 0.811812 46.0599 0.998321 46.2465C1.18483 46.433 1.43779 46.5377 1.70155 46.5377Z" fill="#C3ECF6" stroke="#1E1E1E" stroke-width="1.4145" stroke-miterlimit="10"/>
<path d="M330.024 46.5377H326.176C325.849 46.5377 325.526 46.602 325.225 46.7268C324.924 46.8517 324.65 47.0346 324.419 47.2653C324.189 47.4959 324.006 47.7698 323.881 48.0711C323.756 48.3725 323.692 48.6955 323.692 49.0217V62.7842C323.691 66.078 322.383 69.2368 320.054 71.5658C317.725 73.8949 314.566 75.2036 311.272 75.204H303.489C303.226 75.2036 302.973 75.0986 302.787 74.9121C302.601 74.7257 302.496 74.473 302.496 74.2095V60.2737C302.496 60.0103 302.601 59.7578 302.787 59.5716C302.973 59.3853 303.226 59.2807 303.489 59.2807H308.963C309.622 59.2807 310.253 59.019 310.719 58.5532C311.185 58.0874 311.447 57.4555 311.447 56.7968V19.1127C311.447 18.7865 311.383 18.4635 311.258 18.1621C311.133 17.8608 310.95 17.5869 310.719 17.3563C310.489 17.1256 310.215 16.9426 309.913 16.8178C309.612 16.693 309.289 16.6287 308.963 16.6287H303.489C303.226 16.6287 302.973 16.5241 302.787 16.3379C302.601 16.1517 302.496 15.8991 302.496 15.6358V1.69999C302.496 1.43664 302.601 1.18408 302.787 0.997861C302.973 0.811645 303.226 0.707031 303.489 0.707031H311.272C314.566 0.707031 317.725 2.01554 320.054 4.34471C322.383 6.67387 323.692 9.8329 323.692 13.1268V27.5091C323.692 27.8353 323.756 28.1583 323.881 28.4597C324.006 28.7611 324.189 29.0349 324.419 29.2656C324.65 29.4962 324.924 29.6792 325.225 29.804C325.526 29.9288 325.849 29.9931 326.176 29.9931H330.024C330.288 29.9931 330.541 30.0979 330.727 30.2844C330.914 30.4709 331.019 30.7239 331.019 30.9876V45.5432C331.019 45.807 330.914 46.0599 330.727 46.2465C330.541 46.433 330.288 46.5377 330.024 46.5377Z" fill="#C3ECF6" stroke="#1E1E1E" stroke-width="1.4145" stroke-miterlimit="10"/>
<path d="M34.9281 54.1934V21.2442H46.5247C48.6416 21.2442 50.5437 21.689 52.231 22.5787C53.9183 23.4377 55.2529 24.6496 56.2346 26.2142C57.247 27.7788 57.7532 29.5889 57.7532 31.6444C57.7532 33.6998 57.247 35.5252 56.2346 37.1205C55.2529 38.6852 53.9183 39.9123 52.231 40.802C50.5437 41.661 48.6416 42.0905 46.5247 42.0905H41.1406V54.1934H34.9281ZM41.1406 36.2002H46.7088C47.7826 36.2002 48.6876 35.9854 49.4239 35.5559C50.1602 35.1264 50.7124 34.5742 51.0805 33.8993C51.4487 33.1936 51.6328 32.442 51.6328 31.6444C51.6328 30.8467 51.4487 30.1104 51.0805 29.4355C50.7124 28.7605 50.1602 28.2083 49.4239 27.7788C48.6876 27.3493 47.7826 27.1346 46.7088 27.1346H41.1406V36.2002ZM62.0973 54.1934V30.724H67.7575V33.8532H68.1257C68.5245 33.1169 69.046 32.4727 69.6903 31.9205C70.3652 31.3376 71.1475 30.8774 72.0372 30.5399C72.9269 30.2024 73.878 30.0337 74.8904 30.0337C75.504 30.0337 76.0562 30.0797 76.547 30.1718C77.0379 30.2638 77.4674 30.3865 77.8356 30.5399V36.5683C77.1913 36.3229 76.547 36.1235 75.9028 35.9701C75.2892 35.786 74.6296 35.694 73.924 35.694C72.7275 35.694 71.6844 36.0008 70.7947 36.6143C69.9357 37.1972 69.2761 38.0102 68.816 39.0533C68.3558 40.0657 68.1257 41.2162 68.1257 42.5047V54.1934H62.0973ZM91.5659 54.9297C89.2036 54.9297 87.0868 54.3928 85.2154 53.319C83.3747 52.2452 81.9174 50.7727 80.8436 48.9012C79.8006 47.0298 79.279 44.8976 79.279 42.5047C79.279 40.2651 79.8006 38.1943 80.8436 36.2922C81.8867 34.3901 83.3133 32.8715 85.1234 31.7364C86.9334 30.5706 89.0042 29.9877 91.3358 29.9877C93.8515 29.9877 95.9684 30.5246 97.6864 31.5983C99.4044 32.6721 100.708 34.114 101.598 35.9241C102.488 37.7034 102.932 39.6822 102.932 41.8604C102.932 42.3513 102.917 42.7808 102.886 43.1489C102.856 43.4864 102.825 43.7318 102.794 43.8852H85.2154C85.3381 44.7749 85.5835 45.5572 85.9517 46.2322C86.5346 47.3366 87.3169 48.1803 88.2986 48.7632C89.311 49.3154 90.4308 49.5915 91.658 49.5915C93.0999 49.5915 94.3117 49.2847 95.2934 48.6712C96.2751 48.0269 97.0421 47.2292 97.5943 46.2782L102.472 48.6712C101.368 50.6039 99.9259 52.1379 98.1466 53.273C96.3672 54.3774 94.1736 54.9297 91.5659 54.9297ZM85.4455 39.6055H97.1341C97.1035 39.084 96.9501 38.5471 96.674 37.9949C96.3979 37.4427 96.0144 36.9365 95.5235 36.4763C95.0326 36.0161 94.4344 35.648 93.7288 35.3718C93.0539 35.0651 92.2715 34.9117 91.3819 34.9117C90.2161 34.9117 89.1423 35.2184 88.1606 35.832C87.2095 36.4456 86.4579 37.2893 85.9057 38.363C85.7216 38.7619 85.5682 39.176 85.4455 39.6055ZM107.396 42.5967V37.2586H122.996V42.5967H107.396ZM129.571 54.1934V21.2442H140.708C144.205 21.2442 147.212 21.9498 149.727 23.361C152.274 24.7416 154.222 26.6744 155.572 29.1594C156.952 31.6137 157.643 34.4668 157.643 37.7188C157.643 40.9707 156.952 43.8392 155.572 46.3242C154.222 48.8092 152.274 50.742 149.727 52.1225C147.212 53.5031 144.205 54.1934 140.708 54.1934H129.571ZM135.784 48.303H140.432C142.855 48.303 144.88 47.8735 146.506 47.0145C148.132 46.1248 149.344 44.8823 150.142 43.287C150.97 41.6917 151.384 39.8356 151.384 37.7188C151.384 35.5713 150.97 33.7152 150.142 32.1506C149.344 30.5553 148.132 29.3281 146.506 28.4691C144.88 27.5794 142.855 27.1346 140.432 27.1346H135.784V48.303ZM173.626 54.9297C171.264 54.9297 169.147 54.3928 167.275 53.319C165.435 52.2452 163.978 50.7727 162.904 48.9012C161.861 47.0298 161.339 44.8976 161.339 42.5047C161.339 40.2651 161.861 38.1943 162.904 36.2922C163.947 34.3901 165.373 32.8715 167.183 31.7364C168.994 30.5706 171.064 29.9877 173.396 29.9877C175.912 29.9877 178.028 30.5246 179.746 31.5983C181.464 32.6721 182.768 34.114 183.658 35.9241C184.548 37.7034 184.993 39.6822 184.993 41.8604C184.993 42.3513 184.977 42.7808 184.947 43.1489C184.916 43.4864 184.885 43.7318 184.855 43.8852H167.275C167.398 44.7749 167.644 45.5572 168.012 46.2322C168.595 47.3366 169.377 48.1803 170.359 48.7632C171.371 49.3154 172.491 49.5915 173.718 49.5915C175.16 49.5915 176.372 49.2847 177.354 48.6712C178.335 48.0269 179.102 47.2292 179.654 46.2782L184.532 48.6712C183.428 50.6039 181.986 52.1379 180.207 53.273C178.427 54.3774 176.234 54.9297 173.626 54.9297ZM167.506 39.6055H179.194C179.164 39.084 179.01 38.5471 178.734 37.9949C178.458 37.4427 178.074 36.9365 177.584 36.4763C177.093 36.0161 176.495 35.648 175.789 35.3718C175.114 35.0651 174.332 34.9117 173.442 34.9117C172.276 34.9117 171.202 35.2184 170.221 35.832C169.27 36.4456 168.518 37.2893 167.966 38.363C167.782 38.7619 167.628 39.176 167.506 39.6055ZM196.052 54.1934L186.112 30.724H192.969L198.906 46.0021H199.274L205.302 30.724H212.067L202.035 54.1934H196.052ZM213.863 35.878V30.724H218.051V29.4355C218.051 27.6868 218.403 26.1682 219.109 24.8797C219.845 23.5911 220.858 22.6094 222.146 21.9345C223.465 21.2289 225.015 20.8761 226.794 20.8761C227.408 20.8761 228.037 20.9221 228.681 21.0141C229.325 21.1061 229.939 21.2289 230.522 21.3823V27.2726C230 27.0272 229.494 26.8431 229.003 26.7204C228.512 26.5977 228.021 26.5363 227.53 26.5363C226.487 26.5363 225.644 26.8431 224.999 27.4567C224.386 28.0396 224.079 28.8679 224.079 29.9417V30.724H229.831V35.878H224.079V54.1934H218.051V35.878H213.863ZM243.463 54.9297C241.1 54.9297 238.983 54.3928 237.112 53.319C235.271 52.2452 233.814 50.7727 232.74 48.9012C231.697 47.0298 231.176 44.8976 231.176 42.5047C231.176 40.2651 231.697 38.1943 232.74 36.2922C233.783 34.3901 235.21 32.8715 237.02 31.7364C238.83 30.5706 240.901 29.9877 243.232 29.9877C245.748 29.9877 247.865 30.5246 249.583 31.5983C251.301 32.6721 252.605 34.114 253.495 35.9241C254.384 37.7034 254.829 39.6822 254.829 41.8604C254.829 42.3513 254.814 42.7808 254.783 43.1489C254.752 43.4864 254.722 43.7318 254.691 43.8852H237.112C237.235 44.7749 237.48 45.5572 237.848 46.2322C238.431 47.3366 239.213 48.1803 240.195 48.7632C241.208 49.3154 242.327 49.5915 243.555 49.5915C244.996 49.5915 246.208 49.2847 247.19 48.6712C248.172 48.0269 248.939 47.2292 249.491 46.2782L254.369 48.6712C253.264 50.6039 251.823 52.1379 250.043 53.273C248.264 54.3774 246.07 54.9297 243.463 54.9297ZM237.342 39.6055H249.031C249 39.084 248.847 38.5471 248.571 37.9949C248.294 37.4427 247.911 36.9365 247.42 36.4763C246.929 36.0161 246.331 35.648 245.625 35.3718C244.95 35.0651 244.168 34.9117 243.278 34.9117C242.113 34.9117 241.039 35.2184 240.057 35.832C239.106 36.4456 238.354 37.2893 237.802 38.363C237.618 38.7619 237.465 39.176 237.342 39.6055ZM268.266 54.9297C266.241 54.9297 264.508 54.6382 263.066 54.0553C261.654 53.4724 260.504 52.7054 259.614 51.7544C258.725 50.8033 258.065 49.7603 257.635 48.6251L263.02 46.2782C263.541 47.3826 264.247 48.2263 265.136 48.8092C266.026 49.3614 267.069 49.6375 268.266 49.6375C269.247 49.6375 270.137 49.4841 270.935 49.1774C271.732 48.8399 272.131 48.2416 272.131 47.3826C272.131 46.7691 271.916 46.2935 271.487 45.9561C271.088 45.5879 270.582 45.3118 269.968 45.1277C269.355 44.913 268.726 44.7443 268.082 44.6215L265.321 44.0233C264.185 43.7779 263.112 43.3484 262.099 42.7348C261.087 42.0905 260.258 41.2929 259.614 40.3418C259.001 39.3601 258.694 38.2403 258.694 36.9825C258.694 35.5713 259.093 34.3441 259.89 33.301C260.719 32.2579 261.823 31.4449 263.204 30.862C264.615 30.2791 266.164 29.9877 267.852 29.9877C269.416 29.9877 270.827 30.1718 272.085 30.5399C273.343 30.9081 274.432 31.4756 275.353 32.2426C276.273 32.9789 277.009 33.9299 277.561 35.0957L272.407 37.3506C271.916 36.4303 271.272 35.786 270.475 35.4179C269.708 35.0497 268.879 34.8656 267.99 34.8656C266.946 34.8656 266.118 35.0651 265.505 35.4639C264.891 35.8627 264.584 36.3382 264.584 36.8905C264.584 37.4734 264.891 37.9796 265.505 38.4091C266.118 38.8386 266.854 39.1607 267.713 39.3754L271.165 40.2038C273.496 40.756 275.245 41.6457 276.411 42.8728C277.607 44.1 278.206 45.5726 278.206 47.2906C278.206 48.8245 277.761 50.1744 276.871 51.3402C275.981 52.4753 274.785 53.365 273.282 54.0093C271.778 54.6229 270.106 54.9297 268.266 54.9297ZM280.284 35.878V30.724H284.38V24.0973H290.408V30.724H296.16V35.878H290.408V45.5879C290.408 46.723 290.638 47.5667 291.098 48.1189C291.559 48.6405 292.31 48.9012 293.353 48.9012C293.844 48.9012 294.304 48.8399 294.734 48.7172C295.163 48.5638 295.7 48.2877 296.344 47.8888V53.7792C295.67 54.0246 294.979 54.2087 294.274 54.3314C293.599 54.4848 292.893 54.5615 292.157 54.5615C289.733 54.5615 287.831 53.8712 286.45 52.4907C285.07 51.0794 284.38 49.1467 284.38 46.6924V35.878H280.284Z" fill="black"/>
<path d="M273.695 77.2617H53.7626C43.6365 77.2617 35.4277 85.4705 35.4277 95.5966C35.4277 105.723 43.6365 113.931 53.7626 113.931H273.695C283.821 113.931 292.03 105.723 292.03 95.5966C292.03 85.4705 283.821 77.2617 273.695 77.2617Z" fill="white" stroke="#1E1E1E" stroke-width="1.4145" stroke-linejoin="round"/>
<path d="M94.8677 103.633V90.1291H96.8291L103.6 100.879H103.675L103.6 98.2766V90.1291H105.203V103.633H103.543L96.4708 92.3734H96.3953L96.4708 94.9761V103.633H94.8677ZM110.975 103.935C110.258 103.935 109.63 103.796 109.089 103.52C108.548 103.243 108.121 102.866 107.807 102.388C107.505 101.898 107.354 101.344 107.354 100.728C107.354 100.024 107.536 99.4333 107.901 98.9555C108.266 98.4652 108.756 98.1005 109.372 97.8617C109.988 97.6102 110.667 97.4845 111.409 97.4845C111.836 97.4845 112.232 97.5222 112.597 97.5976C112.962 97.6605 113.276 97.7422 113.54 97.8428C113.817 97.9308 114.024 98.0188 114.162 98.1068V97.5222C114.162 96.7929 113.905 96.2146 113.389 95.7871C112.874 95.3596 112.245 95.1458 111.503 95.1458C110.975 95.1458 110.478 95.2653 110.013 95.5042C109.561 95.7305 109.202 96.0511 108.938 96.466L107.731 95.5607C107.983 95.1835 108.297 94.8566 108.674 94.58C109.051 94.3034 109.479 94.0897 109.957 93.9388C110.447 93.7879 110.963 93.7125 111.503 93.7125C112.811 93.7125 113.836 94.0582 114.577 94.7498C115.319 95.4413 115.69 96.3717 115.69 97.541V103.633H114.162V102.256H114.087C113.924 102.533 113.691 102.803 113.389 103.067C113.087 103.318 112.729 103.526 112.314 103.689C111.912 103.853 111.465 103.935 110.975 103.935ZM111.126 102.52C111.679 102.52 112.182 102.382 112.635 102.105C113.1 101.829 113.471 101.458 113.748 100.992C114.024 100.527 114.162 100.018 114.162 99.4648C113.873 99.2636 113.509 99.1001 113.069 98.9744C112.641 98.8487 112.17 98.7858 111.654 98.7858C110.736 98.7858 110.064 98.9744 109.636 99.3516C109.209 99.7288 108.995 100.194 108.995 100.747C108.995 101.275 109.196 101.703 109.598 102.03C110.001 102.357 110.51 102.52 111.126 102.52ZM121.24 103.935C120.523 103.935 119.888 103.821 119.335 103.595C118.794 103.356 118.342 103.042 117.977 102.652C117.625 102.25 117.361 101.816 117.185 101.351L118.618 100.71C118.87 101.288 119.234 101.734 119.712 102.049C120.19 102.363 120.737 102.52 121.353 102.52C121.944 102.52 122.434 102.401 122.824 102.162C123.226 101.923 123.427 101.571 123.427 101.106C123.427 100.816 123.346 100.577 123.182 100.389C123.019 100.188 122.78 100.018 122.466 99.8797C122.151 99.7414 121.768 99.6156 121.315 99.5025L120.146 99.2007C119.693 99.075 119.266 98.899 118.863 98.6726C118.461 98.4463 118.134 98.1571 117.883 97.8051C117.644 97.4405 117.524 97.0004 117.524 96.4849C117.524 95.9065 117.694 95.4099 118.033 94.9949C118.373 94.58 118.819 94.2657 119.373 94.0519C119.926 93.8256 120.517 93.7125 121.145 93.7125C121.699 93.7125 122.214 93.7942 122.692 93.9576C123.182 94.1085 123.61 94.3411 123.974 94.6555C124.339 94.9572 124.616 95.3344 124.804 95.7871L123.409 96.4283C123.17 95.9505 122.849 95.6173 122.447 95.4287C122.044 95.2401 121.598 95.1458 121.108 95.1458C120.58 95.1458 120.121 95.2653 119.731 95.5042C119.341 95.7305 119.146 96.0448 119.146 96.4472C119.146 96.8495 119.303 97.1513 119.618 97.3524C119.945 97.5536 120.341 97.7171 120.806 97.8428L122.202 98.2011C123.145 98.44 123.855 98.7984 124.333 99.2762C124.811 99.7414 125.049 100.313 125.049 100.992C125.049 101.596 124.88 102.118 124.54 102.558C124.201 102.998 123.742 103.337 123.163 103.576C122.585 103.815 121.944 103.935 121.24 103.935ZM126.76 103.633V90.1291H128.363V94.1085L128.288 95.4287H128.363C128.615 94.9509 129.023 94.5486 129.589 94.2217C130.167 93.8822 130.802 93.7125 131.494 93.7125C132.311 93.7125 132.984 93.8759 133.512 94.2028C134.04 94.5297 134.436 94.9761 134.7 95.5419C134.964 96.0951 135.096 96.7363 135.096 97.4656V103.633H133.493V97.7108C133.493 97.0947 133.38 96.6043 133.154 96.2397C132.94 95.8625 132.651 95.5922 132.286 95.4287C131.934 95.2527 131.544 95.1647 131.117 95.1647C130.589 95.1647 130.117 95.3156 129.702 95.6173C129.287 95.9191 128.96 96.3089 128.721 96.7866C128.483 97.2644 128.363 97.7611 128.363 98.2766V103.633H126.76ZM137.35 103.633V94.0142H138.953V103.633H137.35ZM138.142 92.2414C137.828 92.2414 137.558 92.1282 137.332 91.9019C137.105 91.6756 136.992 91.4053 136.992 91.0909C136.992 90.764 137.105 90.4937 137.332 90.2799C137.558 90.0536 137.828 89.9405 138.142 89.9405C138.469 89.9405 138.74 90.0536 138.953 90.2799C139.18 90.4937 139.293 90.764 139.293 91.0909C139.293 91.4053 139.18 91.6756 138.953 91.9019C138.74 92.1282 138.469 92.2414 138.142 92.2414ZM141.292 103.633V90.1291H142.895V98.5972L147.421 94.0142H149.458V94.0897L145.667 97.8805L149.571 103.557V103.633H147.648L144.555 99.0121L142.895 100.672V103.633H141.292Z" fill="black"/>
<path d="M197.268 96.1514C197.268 85.6245 206.012 77.0908 216.8 77.0908H274.28C285.067 77.0908 293.812 85.6245 293.812 96.1514C293.34 106.795 284.796 114.811 274.009 114.811H216.957C206.17 114.811 197.268 106.678 197.268 96.1514Z" fill="#F9AB00"/>
<path d="M274.28 113.497V114.809L216.047 114.815V113.503L274.28 113.497ZM292.397 95.7481C292.397 86.4243 283.834 78.0679 274.28 78.0679H216.8C207.245 78.0679 198.803 86.4243 198.803 95.7481C198.803 105.072 206.492 113.503 216.047 113.503V114.815L215.543 114.809C204.988 114.548 197.268 106.111 197.268 95.7481C197.268 85.2212 206.012 76.6875 216.8 76.6875H274.28C285.067 76.6875 293.812 85.2212 293.812 95.7481C293.812 106.111 285.338 114.541 274.784 114.802L274.28 114.809V113.497C283.834 113.497 292.397 105.072 292.397 95.7481Z" fill="black"/>
<path d="M228.516 100.576V99.248C228.547 99.2167 228.641 99.1178 228.797 98.9511C228.954 98.774 229.152 98.5553 229.391 98.2948C229.631 98.024 229.886 97.7375 230.157 97.4354C230.438 97.1229 230.719 96.8104 231.001 96.4979C231.282 96.1854 231.542 95.8989 231.782 95.6385C232.022 95.378 232.214 95.1697 232.36 95.0134C232.85 94.4822 233.209 94.0134 233.438 93.6071C233.678 93.1904 233.798 92.7529 233.798 92.2946C233.798 91.9508 233.714 91.6383 233.548 91.357C233.381 91.0653 233.141 90.8362 232.829 90.6695C232.527 90.4924 232.173 90.4039 231.766 90.4039C231.381 90.4039 231.042 90.4872 230.751 90.6539C230.469 90.8205 230.24 91.0237 230.063 91.2633C229.897 91.5029 229.787 91.7372 229.735 91.9664L228.532 91.482C228.594 91.2633 228.704 91.0237 228.86 90.7632C229.027 90.4924 229.245 90.232 229.516 89.982C229.787 89.7319 230.115 89.5288 230.501 89.3726C230.886 89.2163 231.329 89.1382 231.829 89.1382C232.527 89.1382 233.121 89.2892 233.61 89.5913C234.11 89.8934 234.496 90.2841 234.767 90.7632C235.037 91.232 235.173 91.7372 235.173 92.2789C235.173 92.7477 235.074 93.2061 234.876 93.654C234.678 94.1019 234.438 94.5186 234.157 94.904C233.876 95.2791 233.605 95.602 233.345 95.8728C233.209 96.0083 233.022 96.2062 232.782 96.4666C232.553 96.7166 232.303 96.9927 232.032 97.2948C231.761 97.5865 231.496 97.8729 231.235 98.1542C230.975 98.4355 230.745 98.6803 230.548 98.8886C230.36 99.0969 230.23 99.2376 230.157 99.3105H235.267V100.576H228.516ZM241.039 100.826C240.383 100.826 239.794 100.675 239.273 100.373C238.752 100.071 238.304 99.6543 237.929 99.123C237.554 98.5917 237.268 97.9719 237.07 97.2635C236.872 96.5552 236.773 95.7947 236.773 94.9822C236.773 94.1696 236.872 93.4092 237.07 92.7008C237.268 91.9925 237.554 91.3726 237.929 90.8414C238.304 90.2997 238.752 89.883 239.273 89.5913C239.794 89.2892 240.383 89.1382 241.039 89.1382C241.695 89.1382 242.284 89.2892 242.805 89.5913C243.336 89.883 243.789 90.2997 244.164 90.8414C244.539 91.3726 244.826 91.9925 245.023 92.7008C245.221 93.4092 245.32 94.1696 245.32 94.9822C245.32 95.7947 245.221 96.5552 245.023 97.2635C244.826 97.9719 244.539 98.5917 244.164 99.123C243.789 99.6543 243.336 100.071 242.805 100.373C242.284 100.675 241.695 100.826 241.039 100.826ZM241.039 99.5605C241.643 99.5605 242.164 99.3574 242.601 98.9511C243.039 98.5448 243.372 97.9979 243.601 97.3104C243.841 96.6125 243.961 95.8364 243.961 94.9822C243.961 94.1176 243.841 93.3415 243.601 92.654C243.372 91.9664 243.039 91.4195 242.601 91.0133C242.164 90.607 241.643 90.4039 241.039 90.4039C240.435 90.4039 239.914 90.607 239.476 91.0133C239.049 91.4195 238.716 91.9664 238.476 92.654C238.247 93.3415 238.132 94.1176 238.132 94.9822C238.132 95.8364 238.247 96.6125 238.476 97.3104C238.716 97.9979 239.049 98.5448 239.476 98.9511C239.914 99.3574 240.435 99.5605 241.039 99.5605ZM246.599 100.576V99.248C246.63 99.2167 246.724 99.1178 246.88 98.9511C247.036 98.774 247.234 98.5553 247.474 98.2948C247.713 98.024 247.969 97.7375 248.239 97.4354C248.521 97.1229 248.802 96.8104 249.083 96.4979C249.364 96.1854 249.625 95.8989 249.864 95.6385C250.104 95.378 250.297 95.1697 250.443 95.0134C250.932 94.4822 251.292 94.0134 251.521 93.6071C251.76 93.1904 251.88 92.7529 251.88 92.2946C251.88 91.9508 251.797 91.6383 251.63 91.357C251.463 91.0653 251.224 90.8362 250.911 90.6695C250.609 90.4924 250.255 90.4039 249.849 90.4039C249.463 90.4039 249.125 90.4872 248.833 90.6539C248.552 90.8205 248.323 91.0237 248.146 91.2633C247.979 91.5029 247.87 91.7372 247.817 91.9664L246.614 91.482C246.677 91.2633 246.786 91.0237 246.942 90.7632C247.109 90.4924 247.328 90.232 247.599 89.982C247.87 89.7319 248.198 89.5288 248.583 89.3726C248.969 89.2163 249.411 89.1382 249.911 89.1382C250.609 89.1382 251.203 89.2892 251.693 89.5913C252.193 89.8934 252.578 90.2841 252.849 90.7632C253.12 91.232 253.255 91.7372 253.255 92.2789C253.255 92.7477 253.156 93.2061 252.958 93.654C252.76 94.1019 252.521 94.5186 252.24 94.904C251.958 95.2791 251.687 95.602 251.427 95.8728C251.292 96.0083 251.104 96.2062 250.865 96.4666C250.635 96.7166 250.385 96.9927 250.114 97.2948C249.844 97.5865 249.578 97.8729 249.318 98.1542C249.057 98.4355 248.828 98.6803 248.63 98.8886C248.443 99.0969 248.312 99.2376 248.239 99.3105H253.349V100.576H246.599ZM258.465 100.826C257.892 100.826 257.376 100.722 256.918 100.514C256.46 100.295 256.064 100.008 255.731 99.6543C255.408 99.3001 255.152 98.9042 254.965 98.4667C254.788 98.0188 254.699 97.5656 254.699 97.1073C254.699 96.4614 254.829 95.8885 255.09 95.3884C255.361 94.878 255.673 94.3519 256.027 93.8103C256.267 93.4561 256.507 93.1071 256.746 92.7633C256.986 92.4091 257.231 92.0445 257.481 91.6695C257.731 91.2945 257.996 90.8987 258.278 90.482C258.559 90.0653 258.856 89.6226 259.168 89.1538L260.231 89.8882C259.929 90.3257 259.642 90.732 259.371 91.107C259.111 91.482 258.866 91.831 258.637 92.1539C258.408 92.4664 258.194 92.7581 257.996 93.029C257.809 93.2894 257.632 93.5238 257.465 93.7321L257.512 93.7946C257.595 93.7425 257.746 93.6905 257.965 93.6384C258.194 93.5759 258.455 93.5446 258.746 93.5446C259.319 93.5446 259.866 93.6957 260.387 93.9978C260.908 94.2999 261.335 94.7217 261.668 95.2634C262.012 95.7947 262.184 96.4093 262.184 97.1073C262.184 97.6281 262.085 98.1177 261.887 98.5761C261.7 99.024 261.434 99.4199 261.09 99.7636C260.757 100.097 260.366 100.357 259.918 100.545C259.47 100.732 258.986 100.826 258.465 100.826ZM258.449 99.5605C258.918 99.5605 259.33 99.4615 259.684 99.2636C260.048 99.0553 260.335 98.774 260.543 98.4198C260.752 98.0552 260.856 97.6385 260.856 97.1698C260.856 96.701 260.746 96.2895 260.528 95.9353C260.319 95.5707 260.033 95.2895 259.668 95.0916C259.314 94.8832 258.908 94.779 258.449 94.779C258.001 94.779 257.59 94.8832 257.215 95.0916C256.85 95.2999 256.559 95.5864 256.34 95.951C256.132 96.3052 256.027 96.7114 256.027 97.1698C256.027 97.6281 256.132 98.0396 256.34 98.4042C256.548 98.7584 256.835 99.0396 257.199 99.248C257.574 99.4563 257.991 99.5605 258.449 99.5605Z" fill="black"/>
</svg>
